<?xml version="1.0" encoding="utf-8"?>
<svg viewBox="0 0 500 500" xmlns="http://www.w3.org/2000/svg">
  <g style="" transform="matrix(0.8860920071601869, 0, 0, 0.8206220269203187, -16.57642555236816, 90.76752471923828)">
    <path id="path1" style="fill:#fff6d5;stroke-width:1.22327" d="M 303.167 323.385 C 323.988 409.055 273.724 445.672 231.491 448.659 C 189.506 451.629 144.738 413.237 142.354 347.32 C 139.97 281.403 180.889 203.926 222.858 200.654 C 264.826 197.381 314.093 270.205 316.479 336.122 L 227.176 329.305 L 303.167 323.385 Z"/>
    <g id="g1" transform="matrix(0.531747, 0, 0, 0.614318, 91.724937, 173.165558)">
      <path style="stroke-width: 0.853737; fill-opacity: 1; fill: rgb(0, 174, 239);" d="m 255.71858,25.49255 c 2.93349,-8.422933 -14.39209,-9.755404 -22.81585,-16.224545 8.96028,1.526595 17.89764,2.313192 26.9943,8.246949 C 263.81539,6.132274 279.91635,1.07065 292.85485,-5.6318416 282.70182,6.095557 276.18907,11.148768 268.84547,25.855948 Z" id="path39"/>
      <path d="M 250.52543,16.652597 C 199.183,17.40747 164.10755,33.309338 134.87579,62.821643 106.77695,91.012881 97.154737,127.88548 91.282523,174.63429 c 0,0 -6.49511,38.54608 2.635134,54.62809 -14.278858,17.58236 -74.021121,110.21445 -73.503415,145.42603 11.338808,33.65914 65.88794,-58.48155 76.352733,-13.92956 8.977445,37.84426 26.063305,52.41594 61.116965,73.21587 -27.55564,2.83611 -50.65326,23.51272 -50.43886,38.09529 34.69743,20.6866 38.86681,14.87402 74.28659,14.35325 32.64291,-0.47994 46.02946,-8.41431 45.78935,-24.74562 -0.0152,-1.03737 0.20887,-1.87075 -0.041,-2.7861 9.82986,1.36741 19.53808,2.49944 29.58206,2.35177 10.04397,-0.14768 19.71472,-1.56463 29.50014,-3.22043 -0.22282,0.92229 0.0257,1.74872 0.041,2.78609 0.24012,16.33131 13.85413,23.8687 46.5266,23.38833 35.41978,-0.52077 35.16464,6.24221 69.2389,-15.4555 -0.21441,-14.58259 -19.31631,-35.6467 -46.94344,-37.67147 34.42702,-21.82149 51.04755,-36.88874 58.90854,-74.98058 9.15049,-44.84038 62.31509,44.17505 72.65946,10.19712 -0.51771,-35.21159 -58.85811,-124.56597 -73.6477,-141.72095 8.62396,-16.34304 1.02797,-54.68194 1.02797,-54.68194 C 407.09997,123.32845 396.42744,86.754233 367.51195,59.40126 337.42519,30.761098 301.8974,15.897289 250.52543,16.652597 Z m -22.63359,50.226637 c 15.85546,3.235434 9.5837,9.416432 11.62976,23.581509 17.9042,123.952427 21.94901,-21.016911 34.14465,-23.216919 92.94041,2.932169 129.26774,128.988886 107.16958,155.342786 0,0 26.23288,59.60701 13.67723,101.94791 -18.13243,60.95153 -73.32616,118.68237 -138.7597,119.64442 -65.43354,0.96205 -124.09994,-44.37048 -144.046,-104.76215 -13.765475,-41.95391 17.49179,-110.31454 17.49179,-110.31454 -22.89294,-25.69242 5.84911,-156.55933 98.69269,-162.223016 z" style="stroke-width: 29.5934; fill-opacity: 1; fill: rgb(0, 174, 239);" id="path5"/>
    </g>
    <g id="g3" transform="matrix(0.531747, 0, 0, 0.614318, 91.724937, 173.165558)">
      <g id="g2">
        <g id="g4" transform="matrix(2.9502434,-0.11225511,0.121041,2.7360969,-54.791259,-92.398268)">
          <path style="fill:#000000;stroke-width:0.633562" id="path3" d="m 124.98244,71.119575 a 7.1978536,8.815156 0 0 1 -6.91906,9.143709 7.1978536,8.815156 0 0 1 -7.46624,-8.473569 7.1978536,8.815156 0 0 1 6.91881,-9.143991 7.1978536,8.815156 0 0 1 7.46648,8.473264 l -7.19264,0.33551 z" transform="rotate(1.9495519)"/>
          <path style="fill:#f9f9f9;stroke-width:0.291031" id="path4" d="m 116.31254,67.772307 a 2.3727436,2.3727436 0 0 1 -2.28084,2.461179 2.3727436,2.3727436 0 0 1 -2.46121,-2.2808 2.3727436,2.3727436 0 0 1 2.28075,-2.461255 2.3727436,2.3727436 0 0 1 2.4613,2.280718 l -2.37103,0.09031 z" transform="rotate(1.9495519)"/>
        </g>
        <g id="g9" transform="matrix(-2.9502434,-0.11225511,-0.121041,2.7360969,561.71958,-93.456109)">
          <path style="fill:#000000;stroke-width:0.633562" id="path6" d="m 124.98244,71.119575 a 7.1978536,8.815156 0 0 1 -6.91906,9.143709 7.1978536,8.815156 0 0 1 -7.46624,-8.473569 7.1978536,8.815156 0 0 1 6.91881,-9.143991 7.1978536,8.815156 0 0 1 7.46648,8.473264 l -7.19264,0.33551 z" transform="rotate(1.9495519)"/>
          <path style="fill:#f9f9f9;stroke-width:0.291031" id="path9" d="m 116.31254,67.772307 a 2.3727436,2.3727436 0 0 1 -2.28084,2.461179 2.3727436,2.3727436 0 0 1 -2.46121,-2.2808 2.3727436,2.3727436 0 0 1 2.28075,-2.461255 2.3727436,2.3727436 0 0 1 2.4613,2.280718 l -2.37103,0.09031 z" transform="rotate(1.9495519)"/>
        </g>
      </g>
      <g id="g12" transform="matrix(3.73286,-0.11640455,0.15314977,2.837235,132.67218,-22.647879)">
        <path id="path11" style="fill:#ffd42a;stroke-width:0.320159" d="m 38.435193,58.876405 c 0.278181,2.773404 -3.359727,6.631373 -8.183946,6.901442 -4.82422,0.27007 -9.007951,-3.150032 -9.286284,-5.923427 -0.278333,-2.773395 3.406775,-5.240659 8.230977,-5.510821 4.824203,-0.270165 8.960729,1.759084 9.239227,4.532472 l -8.735092,0.489257 z"/>
        <path id="path12" style="fill:#2b0000;stroke-width:0.104073" d="m 38.176361,59.654117 c 0.190772,0.292455 -3.498928,0.81919 -8.247385,0.992195 -4.748498,0.172976 -8.757682,-0.07323 -8.948551,-0.365676 -0.19102,-0.292447 3.503724,-0.669783 8.25218,-0.842799 4.748471,-0.172976 8.752707,-0.0762 8.943741,0.216246 l -8.597953,0.313289 z"/>
      </g>
    </g>
  </g>
  <path stroke-linecap="round" stroke-linejoin="round" d="M 16.337 133.879 C 16.337 155.43 43.438 174.207 81.665 177.345 C 107.438 179.459 133.501 181.104 159.805 182.248 C 171.052 182.747 181.356 186.033 187.631 191.287 L 251.631 244.87 L 315.63 191.287 C 321.905 186.033 332.209 182.747 343.456 182.261 C 369.76 181.104 395.823 179.459 421.596 177.345 C 459.823 174.207 486.924 155.443 486.924 133.864 L 486.924 52.803 C 486.924 31.224 459.823 12.462 421.596 9.322 C 365.319 4.716 308.511 2.413 251.631 2.413 C 193.905 2.413 137.145 4.771 81.665 9.322 C 43.438 12.462 16.337 31.238 16.337 52.803 L 16.337 133.864 L 16.337 133.879 Z" style="fill: rgb(0, 174, 239);"/>
  <path d="M 112.357 145.013 L 116.357 145.013 L 116.357 161.413 L 77.157 161.413 L 77.157 145.013 L 83.157 145.013 L 81.557 137.013 L 67.957 137.013 L 66.357 145.013 L 72.357 145.013 L 72.357 161.413 L 38.157 161.413 L 38.157 145.013 L 42.157 145.013 L 59.057 83.613 L 95.457 83.613 Z M 70.157 126.413 L 79.357 126.413 L 75.257 106.513 L 74.257 106.513 Z" transform="matrix(0.93543, 0, 0, 0.90873, 28.473282, 5.257933)" style="fill: rgb(255, 255, 255);"/>
  <path d="M 143.641 162.813 Q 131.041 162.813 119.341 158.813 L 119.341 144.013 L 135.541 144.013 L 135.541 145.013 Q 135.541 149.813 141.641 149.813 Q 147.041 149.813 147.041 146.113 Q 147.041 144.113 145.491 143.113 Q 143.941 142.113 140.041 141.413 L 135.041 140.513 Q 119.341 137.713 119.341 122.713 Q 119.341 114.013 125.941 109.213 Q 132.541 104.413 143.741 104.413 Q 156.241 104.413 164.841 108.613 L 164.841 122.513 L 149.641 122.513 L 149.641 121.513 Q 149.641 119.513 148.291 118.463 Q 146.941 117.413 144.341 117.413 Q 139.341 117.413 139.341 120.613 Q 139.341 122.313 140.741 123.213 Q 142.141 124.113 145.841 124.913 L 151.541 126.013 Q 160.441 127.713 164.241 132.313 Q 168.041 136.913 168.041 144.113 Q 168.041 153.213 161.691 158.013 Q 155.341 162.813 143.641 162.813 Z" transform="matrix(0.93543, 0, 0, 0.90873, 28.473282, 5.257933)" style="fill: rgb(255, 255, 255);"/>
  <path d="M 231.522 145.013 L 235.822 145.013 L 235.822 161.413 L 211.322 161.413 L 201.022 142.213 L 198.622 142.213 L 198.622 161.413 L 171.222 161.413 L 171.222 145.013 L 175.622 145.013 L 175.622 100.013 L 171.222 100.013 L 171.222 83.613 L 198.622 83.613 L 198.622 124.213 L 201.022 124.213 L 213.422 105.813 L 234.522 105.813 L 234.522 122.213 L 230.422 122.213 L 221.922 131.713 Z" transform="matrix(0.93543, 0, 0, 0.90873, 28.473282, 5.257933)" style="fill: rgb(255, 255, 255);"/>
  <path d="M 379.521 100.013 L 374.521 100.013 L 374.521 145.013 L 379.521 145.013 L 379.521 161.413 L 341.721 161.413 L 341.721 145.013 L 346.521 145.013 L 346.521 110.013 L 329.521 161.413 L 314.721 161.413 L 297.221 110.513 L 297.221 145.013 L 302.021 145.013 L 302.021 161.413 L 269.221 161.413 L 269.221 145.013 L 274.221 145.013 L 274.221 100.013 L 269.221 100.013 L 269.221 83.613 L 315.021 83.613 L 325.421 114.813 L 335.421 83.613 L 379.521 83.613 Z" transform="matrix(0.93543, 0, 0, 0.90873, 28.473282, 5.257933)" style="fill: rgb(255, 255, 255);"/>
  <path d="M 413.088 162.813 Q 398.888 162.813 390.888 155.363 Q 382.888 147.913 382.888 133.613 Q 382.888 119.313 390.888 111.863 Q 398.888 104.413 413.088 104.413 Q 427.188 104.413 433.438 111.763 Q 439.688 119.113 439.688 130.013 L 439.688 137.213 L 407.288 137.213 L 407.288 137.813 Q 407.288 141.513 409.488 143.263 Q 411.688 145.013 416.788 145.013 Q 422.888 145.013 428.388 144.113 Q 433.888 143.213 437.988 141.813 L 437.988 157.813 Q 434.488 159.713 427.738 161.263 Q 420.988 162.813 413.088 162.813 Z M 418.888 126.213 L 418.888 125.013 Q 418.888 121.613 417.438 120.113 Q 415.988 118.613 413.088 118.613 Q 410.188 118.613 408.738 120.163 Q 407.288 121.713 407.288 125.013 L 407.288 126.213 Z" transform="matrix(0.93543, 0, 0, 0.90873, 28.473282, 5.257933)" style="fill: rgb(255, 255, 255);"/>
  <path d="M 79.815 26.457 L 77.765 26.457 L 77.765 44.907 L 79.815 44.907 L 79.815 51.631 L 64.317 51.631 L 64.317 44.907 L 66.285 44.907 L 66.285 38.142 L 60.545 38.142 L 60.545 44.907 L 62.513 44.907 L 62.513 51.631 L 47.015 51.631 L 47.015 44.907 L 49.065 44.907 L 49.065 26.457 L 47.015 26.457 L 47.015 19.733 L 62.513 19.733 L 62.513 26.457 L 60.545 26.457 L 60.545 32.689 L 66.285 32.689 L 66.285 26.457 L 64.317 26.457 L 64.317 19.733 L 79.815 19.733 Z" transform="matrix(0.920878, 0, 0, 0.815534, 34.089832, 12.030497)" style="fill: rgb(255, 255, 255);"/>
  <path d="M 105.255 44.907 L 105.255 51.631 L 94.431 51.631 L 94.431 48.843 Q 93.529 50.155 91.909 51.18 Q 90.29 52.205 87.953 52.205 Q 84.878 52.205 83.115 50.565 Q 81.352 48.925 81.352 45.932 Q 81.352 38.183 94.513 37.978 Q 94.39 36.584 93.447 36.072 Q 92.504 35.559 90.249 35.559 Q 88.404 35.559 86.292 35.949 Q 84.181 36.338 82.418 36.994 L 82.418 29.45 Q 84.591 28.917 87.133 28.589 Q 89.675 28.261 92.094 28.261 Q 98.203 28.261 100.827 30.475 Q 103.451 32.689 103.451 37.322 L 103.451 44.907 Z M 94.431 42.037 Q 92.586 42.037 91.581 42.529 Q 90.577 43.021 90.577 44.169 Q 90.577 44.866 91.007 45.297 Q 91.438 45.727 92.217 45.727 Q 93.283 45.727 93.857 44.825 Q 94.431 43.923 94.431 42.283 Z" transform="matrix(0.920878, 0, 0, 0.815534, 34.089832, 12.030497)" style="fill: rgb(255, 255, 255);"/>
  <path d="M 111.498 51.631 L 106.332 35.559 L 104.61 35.559 L 104.61 28.835 L 117.279 28.835 L 117.279 35.559 L 115.557 35.559 L 117.73 43.677 L 118.14 43.677 L 120.313 35.559 L 118.591 35.559 L 118.591 28.835 L 130.481 28.835 L 130.481 35.559 L 128.759 35.559 L 123.716 51.631 Z" transform="matrix(0.920878, 0, 0, 0.815534, 34.089832, 12.030497)" style="fill: rgb(255, 255, 255);"/>
  <path d="M 143.833 52.205 Q 138.011 52.205 134.731 49.151 Q 131.451 46.096 131.451 40.233 Q 131.451 34.37 134.731 31.316 Q 138.011 28.261 143.833 28.261 Q 149.614 28.261 152.176 31.275 Q 154.739 34.288 154.739 38.757 L 154.739 41.709 L 141.455 41.709 L 141.455 41.955 Q 141.455 43.472 142.357 44.19 Q 143.259 44.907 145.35 44.907 Q 147.851 44.907 150.106 44.538 Q 152.361 44.169 154.042 43.595 L 154.042 50.155 Q 152.607 50.934 149.839 51.57 Q 147.072 52.205 143.833 52.205 Z M 146.211 37.199 L 146.211 36.707 Q 146.211 35.313 145.616 34.698 Q 145.022 34.083 143.833 34.083 Q 142.644 34.083 142.049 34.719 Q 141.455 35.354 141.455 36.707 L 141.455 37.199 Z" transform="matrix(0.920878, 0, 0, 0.815534, 34.089832, 12.030497)" style="fill: rgb(255, 255, 255);"/>
  <path d="M 192.164 44.907 L 192.164 51.631 L 181.34 51.631 L 181.34 48.843 Q 180.438 50.155 178.818 51.18 Q 177.199 52.205 174.862 52.205 Q 171.787 52.205 170.024 50.565 Q 168.261 48.925 168.261 45.932 Q 168.261 38.183 181.422 37.978 Q 181.299 36.584 180.356 36.072 Q 179.413 35.559 177.158 35.559 Q 175.313 35.559 173.201 35.949 Q 171.09 36.338 169.327 36.994 L 169.327 29.45 Q 171.5 28.917 174.042 28.589 Q 176.584 28.261 179.003 28.261 Q 185.112 28.261 187.736 30.475 Q 190.36 32.689 190.36 37.322 L 190.36 44.907 Z M 181.34 42.037 Q 179.495 42.037 178.49 42.529 Q 177.486 43.021 177.486 44.169 Q 177.486 44.866 177.916 45.297 Q 178.347 45.727 179.126 45.727 Q 180.192 45.727 180.766 44.825 Q 181.34 43.923 181.34 42.283 Z" transform="matrix(0.920878, 0, 0, 0.815534, 34.089832, 12.030497)" style="fill: rgb(255, 255, 255);"/>
  <path d="M 220.706 44.907 L 220.706 51.631 L 207.75 51.631 L 207.75 44.907 L 209.472 44.907 L 209.472 38.183 Q 209.472 36.83 208.898 36.195 Q 208.324 35.559 207.176 35.559 Q 204.716 35.559 204.716 38.183 L 204.716 44.907 L 206.438 44.907 L 206.438 51.631 L 193.482 51.631 L 193.482 44.907 L 195.286 44.907 L 195.286 35.559 L 193.482 35.559 L 193.482 28.835 L 204.716 28.835 L 204.716 32.033 Q 207.668 28.261 212.096 28.261 Q 215.499 28.261 217.201 30.393 Q 218.902 32.525 218.902 36.256 L 218.902 44.907 Z" transform="matrix(0.920878, 0, 0, 0.815534, 34.089832, 12.030497)" style="fill: rgb(255, 255, 255);"/>
  <path d="M 246.691 28.835 L 246.691 35.559 L 245.133 35.559 L 239.762 49.786 Q 237.753 55.157 235.17 57.843 Q 232.587 60.528 228.364 60.528 Q 226.642 60.528 224.879 60.18 Q 223.116 59.831 221.681 59.216 L 221.681 51.795 L 227.339 51.795 L 227.339 52.205 Q 227.339 53.23 228.405 53.23 Q 229.348 53.23 229.84 52.328 L 223.362 35.559 L 221.804 35.559 L 221.804 28.835 L 233.981 28.835 L 233.981 35.559 L 232.587 35.559 L 234.719 41.955 L 236.687 35.559 L 235.293 35.559 L 235.293 28.835 Z" transform="matrix(0.920878, 0, 0, 0.815534, 34.089832, 12.030497)" style="fill: rgb(255, 255, 255);"/>
  <path d="M 292.034 54.829 Q 283.342 54.829 278.114 54.296 Q 272.887 53.763 269.115 52.021 Q 265.343 50.278 262.801 46.793 Q 260.054 42.816 260.054 35.682 Q 260.054 27.359 264.174 23.259 Q 268.295 19.159 275.716 19.159 Q 283.096 19.159 287.237 22.788 Q 291.378 26.416 291.378 33.632 Q 291.378 36.748 290.373 39.475 Q 289.369 42.201 286.909 44.497 L 287.114 44.907 L 292.034 44.907 L 292.034 54.829 Z M 275.716 44.907 Q 278.504 44.907 278.504 41.873 L 278.504 29.491 Q 278.504 26.457 275.716 26.457 Q 272.928 26.457 272.928 29.491 L 272.928 41.873 Q 272.928 44.907 275.716 44.907 Z" transform="matrix(0.920878, 0, 0, 0.815534, 34.089832, 12.030497)" style="fill: rgb(255, 255, 255);"/>
  <path d="M 320.393 44.907 L 320.393 51.631 L 309.159 51.631 L 309.159 48.433 Q 306.207 52.205 301.779 52.205 Q 298.376 52.205 296.675 50.073 Q 294.973 47.941 294.973 44.21 L 294.973 35.559 L 293.169 35.559 L 293.169 28.835 L 304.403 28.835 L 304.403 42.283 Q 304.403 43.636 304.998 44.272 Q 305.592 44.907 306.781 44.907 Q 307.97 44.907 308.565 44.272 Q 309.159 43.636 309.159 42.283 L 309.159 35.559 L 306.945 35.559 L 306.945 28.835 L 318.589 28.835 L 318.589 44.907 Z" transform="matrix(0.920878, 0, 0, 0.815534, 34.089832, 12.030497)" style="fill: rgb(255, 255, 255);"/>
  <path d="M 333.764 52.205 Q 327.942 52.205 324.662 49.151 Q 321.382 46.096 321.382 40.233 Q 321.382 34.37 324.662 31.316 Q 327.942 28.261 333.764 28.261 Q 339.545 28.261 342.108 31.275 Q 344.67 34.288 344.67 38.757 L 344.67 41.709 L 331.386 41.709 L 331.386 41.955 Q 331.386 43.472 332.288 44.19 Q 333.19 44.907 335.281 44.907 Q 337.782 44.907 340.037 44.538 Q 342.292 44.169 343.973 43.595 L 343.973 50.155 Q 342.538 50.934 339.771 51.57 Q 337.003 52.205 333.764 52.205 Z M 336.142 37.199 L 336.142 36.707 Q 336.142 35.313 335.548 34.698 Q 334.953 34.083 333.764 34.083 Q 332.575 34.083 331.981 34.719 Q 331.386 35.354 331.386 36.707 L 331.386 37.199 Z" transform="matrix(0.920878, 0, 0, 0.815534, 34.089832, 12.030497)" style="fill: rgb(255, 255, 255);"/>
  <path d="M 363.394 28.261 Q 364.214 28.261 364.952 28.425 Q 365.69 28.589 366.182 28.835 L 366.182 36.666 Q 364.501 35.969 362.574 35.969 Q 359.991 35.969 358.597 37.322 Q 357.203 38.675 357.203 41.34 L 357.203 44.907 L 360.893 44.907 L 360.893 51.631 L 345.969 51.631 L 345.969 44.907 L 347.773 44.907 L 347.773 35.559 L 345.969 35.559 L 345.969 28.835 L 357.203 28.835 L 357.203 31.828 Q 358.351 30.106 359.827 29.184 Q 361.303 28.261 363.394 28.261 Z" transform="matrix(0.920878, 0, 0, 0.815534, 34.089832, 12.030497)" style="fill: rgb(255, 255, 255);"/>
  <path d="M 392.18 28.835 L 392.18 35.559 L 390.622 35.559 L 385.251 49.786 Q 383.242 55.157 380.659 57.843 Q 378.076 60.528 373.853 60.528 Q 372.131 60.528 370.368 60.18 Q 368.605 59.831 367.17 59.216 L 367.17 51.795 L 372.828 51.795 L 372.828 52.205 Q 372.828 53.23 373.894 53.23 Q 374.837 53.23 375.329 52.328 L 368.851 35.559 L 367.293 35.559 L 367.293 28.835 L 379.47 28.835 L 379.47 35.559 L 378.076 35.559 L 380.208 41.955 L 382.176 35.559 L 380.782 35.559 L 380.782 28.835 Z" transform="matrix(0.920878, 0, 0, 0.815534, 34.089832, 12.030497)" style="fill: rgb(255, 255, 255);"/>
  <path d="M 411.242 40.766 Q 411.242 38.921 411.919 37.548 Q 412.595 36.174 413.538 35.313 Q 414.481 34.452 415.957 33.427 Q 417.433 32.402 418.13 31.664 Q 418.827 30.926 418.827 29.901 Q 418.827 28.261 416.367 28.261 Q 414.44 28.261 412.062 28.999 Q 409.684 29.737 407.716 30.68 L 405.543 22.316 Q 408.249 21.045 411.816 20.102 Q 415.383 19.159 418.909 19.159 Q 422.394 19.159 424.998 20.205 Q 427.601 21.25 428.995 23.177 Q 430.389 25.104 430.389 27.646 Q 430.389 29.86 429.672 31.377 Q 428.954 32.894 427.929 33.858 Q 426.904 34.821 425.223 35.969 Q 423.829 36.953 422.989 37.691 Q 422.148 38.429 421.595 39.495 Q 421.041 40.561 421.041 42.037 L 421.041 42.652 L 411.242 42.652 Z M 411.242 51.631 L 411.242 44.907 L 421 44.907 L 421 51.631 Z" transform="matrix(0.920878, 0, 0, 0.815534, 34.089832, 12.030497)" style="fill: rgb(255, 255, 255);"/>
</svg>