<?xml version="1.0" encoding="UTF-8" standalone="no"?>
<svg
   fill="none"
   viewBox="0 0 2734.4248 1802.1508"
   stroke-width="1.5"
   stroke="currentColor"
   class="w-6 h-6"
   version="1.1"
   id="svg1"
   sodipodi:docname="chat.svg"
   width="2734.4248"
   height="1802.1508"
   xmlns:inkscape="http://www.inkscape.org/namespaces/inkscape"
   xmlns:sodipodi="http://sodipodi.sourceforge.net/DTD/sodipodi-0.dtd"
   xmlns="http://www.w3.org/2000/svg"
   xmlns:svg="http://www.w3.org/2000/svg">
  <defs
     id="defs1" />
  <sodipodi:namedview
     id="namedview1"
     pagecolor="#ffffff"
     bordercolor="#000000"
     borderopacity="0.25"
     inkscape:showpageshadow="2"
     inkscape:pageopacity="0.0"
     inkscape:pagecheckerboard="0"
     inkscape:deskcolor="#d1d1d1" />
  <g
     id="g3"
     inkscape:export-filename="g3.svg"
     inkscape:export-xdpi="96"
     inkscape:export-ydpi="96"
     transform="translate(73.876732,1280.1508)">
    <path
       stroke-linecap="round"
       stroke-linejoin="round"
       d="m 53.888984,15.17883 c 29.458792,0 53.345906,-14.5290988 53.345906,-32.448581 0,-17.919484 -23.887114,-32.448582 -53.345906,-32.448582 -29.458793,0 -53.3459012,14.529098 -53.3459012,32.448582 0,8.2753705 5.0915697,15.8231084 13.4728032,21.5537232 2.560604,1.7581251 4.386219,4.0904882 3.473411,6.4543198 a 26.572186,17.632363 0 0 1 -5.470918,7.020691 35.380187,23.47704 0 0 0 6.30667,0.369719 c 7.598828,0 14.640487,-1.581131 20.419626,-4.275347 4.801131,0.865294 9.886774,1.325475 15.144309,1.325475 z"
       id="path1"
       style="stroke-width:7.24256" />
    <text
       xml:space="preserve"
       style="font-weight:bold;font-size:21.0788px;font-family:'Fira Code';-inkscape-font-specification:'Fira Code Bold';letter-spacing:0px;word-spacing:0px;fill:#000000;stroke-width:1.40913"
       x="52.578934"
       y="-23.738832"
       id="text1"><tspan
         sodipodi:role="line"
         x="52.578934"
         y="-23.738832"
         id="tspan2"
         style="text-align:center;text-anchor:middle;fill:#000000;stroke-width:1.40913">Chat</tspan><tspan
         sodipodi:role="line"
         x="52.578934"
         y="2.6096678"
         style="text-align:center;text-anchor:middle;fill:#000000;stroke-width:1.40913"
         id="tspan3">Now</tspan></text>
  </g>
</svg>
