<?xml version="1.0" encoding="UTF-8" standalone="no"?>
<svg
   viewBox="0 0 500 500"
   version="1.1"
   id="svg1"
   sodipodi:docname="tux.svg"
   xml:space="preserve"
   inkscape:version="1.3 (0e150ed6c4, 2023-07-21)"
   xmlns:inkscape="http://www.inkscape.org/namespaces/inkscape"
   xmlns:sodipodi="http://sodipodi.sourceforge.net/DTD/sodipodi-0.dtd"
   xmlns="http://www.w3.org/2000/svg"
   xmlns:svg="http://www.w3.org/2000/svg"><defs
     id="defs1"><linearGradient
       gradientUnits="userSpaceOnUse"
       x1="8"
       y1="5"
       x2="8"
       y2="8.25"
       id="gradient-0"
       gradientTransform="matrix(23.186537,-0.49521504,0.70556489,23.182038,426.40783,-90.769495)"><stop
         offset="0"
         style="stop-color: rgba(0, 175, 239, 1)"
         id="stop1" /><stop
         offset="1"
         style="stop-color: rgba(0, 101, 137, 1)"
         id="stop2" /></linearGradient><linearGradient
       gradientUnits="userSpaceOnUse"
       x1="8.031"
       y1="0.004"
       x2="8.031"
       y2="15.816"
       id="gradient-1"
       gradientTransform="matrix(29.5411,-0.43433432,0.43577933,29.639382,13.279099,20.022178)"><stop
         offset="0"
         style="stop-color: rgba(0, 175, 239, 1)"
         id="stop3" /><stop
         offset="1"
         style="stop-color: rgba(0, 101, 137, 1)"
         id="stop4" /></linearGradient></defs><sodipodi:namedview
     id="namedview1"
     pagecolor="#ffffff"
     bordercolor="#000000"
     borderopacity="0.25"
     inkscape:showpageshadow="2"
     inkscape:pageopacity="0.0"
     inkscape:pagecheckerboard="0"
     inkscape:deskcolor="#d1d1d1"
     inkscape:zoom="1.1384419"
     inkscape:cx="175.23951"
     inkscape:cy="260.44368"
     inkscape:window-width="1920"
     inkscape:window-height="1011"
     inkscape:window-x="0"
     inkscape:window-y="0"
     inkscape:window-maximized="1"
     inkscape:current-layer="g13" /><g
     id="g13"
     transform="translate(0,10)"><path
       id="path1"
       style="fill:#fff6d5;stroke-width:1.22327"
       d="M 397.63742,244.5306 C 436.7934,383.98549 342.26658,443.59233 262.84378,448.45491 183.88653,453.28899 99.696955,390.79414 95.213405,283.49297 90.729852,176.1918 167.68161,50.072993 246.60722,44.745944 325.53282,39.41889 418.18466,157.96347 422.67085,265.26446 L 254.72788,254.1665 Z"
       sodipodi:nodetypes="csssccc"
       inkscape:export-filename="path1.svg"
       inkscape:export-xdpi="96"
       inkscape:export-ydpi="96" /><g
       id="g1"><path
         style="fill:#003b61;stroke-width:0.853737;fill-opacity:1"
         d="m 255.71858,25.49255 c 2.93349,-8.422933 -14.39209,-9.755404 -22.81585,-16.224545 8.96028,1.526595 17.89764,2.313192 26.9943,8.246949 C 263.81539,6.132274 279.91635,1.07065 292.85485,-5.6318416 282.70182,6.095557 276.18907,11.148768 268.84547,25.855948 Z"
         id="path39" /><path
         d="M 250.52543,16.652597 C 199.183,17.40747 164.10755,33.309338 134.87579,62.821643 106.77695,91.012881 97.154737,127.88548 91.282523,174.63429 c 0,0 -6.49511,38.54608 2.635134,54.62809 -14.278858,17.58236 -74.021121,110.21445 -73.503415,145.42603 11.338808,33.65914 65.88794,-58.48155 76.352733,-13.92956 8.977445,37.84426 26.063305,52.41594 61.116965,73.21587 -27.55564,2.83611 -50.65326,23.51272 -50.43886,38.09529 34.69743,20.6866 38.86681,14.87402 74.28659,14.35325 32.64291,-0.47994 46.02946,-8.41431 45.78935,-24.74562 -0.0152,-1.03737 0.20887,-1.87075 -0.041,-2.7861 9.82986,1.36741 19.53808,2.49944 29.58206,2.35177 10.04397,-0.14768 19.71472,-1.56463 29.50014,-3.22043 -0.22282,0.92229 0.0257,1.74872 0.041,2.78609 0.24012,16.33131 13.85413,23.8687 46.5266,23.38833 35.41978,-0.52077 35.16464,6.24221 69.2389,-15.4555 -0.21441,-14.58259 -19.31631,-35.6467 -46.94344,-37.67147 34.42702,-21.82149 51.04755,-36.88874 58.90854,-74.98058 9.15049,-44.84038 62.31509,44.17505 72.65946,10.19712 -0.51771,-35.21159 -58.85811,-124.56597 -73.6477,-141.72095 8.62396,-16.34304 1.02797,-54.68194 1.02797,-54.68194 C 407.09997,123.32845 396.42744,86.754233 367.51195,59.40126 337.42519,30.761098 301.8974,15.897289 250.52543,16.652597 Z m -22.63359,50.226637 c 15.85546,3.235434 9.5837,9.416432 11.62976,23.581509 17.9042,123.952427 21.94901,-21.016911 34.14465,-23.216919 92.94041,2.932169 129.26774,128.988886 107.16958,155.342786 0,0 26.23288,59.60701 13.67723,101.94791 -18.13243,60.95153 -73.32616,118.68237 -138.7597,119.64442 -65.43354,0.96205 -124.09994,-44.37048 -144.046,-104.76215 -13.765475,-41.95391 17.49179,-110.31454 17.49179,-110.31454 -22.89294,-25.69242 5.84911,-156.55933 98.69269,-162.223016 z"
         style="fill:#003b61;stroke-width:29.5934;fill-opacity:1"
         id="path5"
         sodipodi:nodetypes="scccccccsscsccscccccccscscccsccc" /></g><g
       id="g3"><g
         id="g2"><g
           id="g4"
           transform="matrix(2.9502434,-0.11225511,0.121041,2.7360969,-54.791259,-92.398268)"><path
             style="fill:#000000;stroke-width:0.633562"
             id="path3"
             d="m 124.98244,71.119575 a 7.1978536,8.815156 0 0 1 -6.91906,9.143709 7.1978536,8.815156 0 0 1 -7.46624,-8.473569 7.1978536,8.815156 0 0 1 6.91881,-9.143991 7.1978536,8.815156 0 0 1 7.46648,8.473264 l -7.19264,0.33551 z"
             transform="rotate(1.9495519)" /><path
             style="fill:#f9f9f9;stroke-width:0.291031"
             id="path4"
             d="m 116.31254,67.772307 a 2.3727436,2.3727436 0 0 1 -2.28084,2.461179 2.3727436,2.3727436 0 0 1 -2.46121,-2.2808 2.3727436,2.3727436 0 0 1 2.28075,-2.461255 2.3727436,2.3727436 0 0 1 2.4613,2.280718 l -2.37103,0.09031 z"
             transform="rotate(1.9495519)" /></g><g
           id="g9"
           transform="matrix(-2.9502434,-0.11225511,-0.121041,2.7360969,561.71958,-93.456109)"><path
             style="fill:#000000;stroke-width:0.633562"
             id="path6"
             d="m 124.98244,71.119575 a 7.1978536,8.815156 0 0 1 -6.91906,9.143709 7.1978536,8.815156 0 0 1 -7.46624,-8.473569 7.1978536,8.815156 0 0 1 6.91881,-9.143991 7.1978536,8.815156 0 0 1 7.46648,8.473264 l -7.19264,0.33551 z"
             transform="rotate(1.9495519)" /><path
             style="fill:#f9f9f9;stroke-width:0.291031"
             id="path9"
             d="m 116.31254,67.772307 a 2.3727436,2.3727436 0 0 1 -2.28084,2.461179 2.3727436,2.3727436 0 0 1 -2.46121,-2.2808 2.3727436,2.3727436 0 0 1 2.28075,-2.461255 2.3727436,2.3727436 0 0 1 2.4613,2.280718 l -2.37103,0.09031 z"
             transform="rotate(1.9495519)" /></g></g><g
         id="g12"
         transform="matrix(3.73286,-0.11640455,0.15314977,2.837235,132.67218,-22.647879)"><path
           id="path11"
           style="fill:#ffd42a;stroke-width:0.320159"
           d="m 38.435193,58.876405 c 0.278181,2.773404 -3.359727,6.631373 -8.183946,6.901442 -4.82422,0.27007 -9.007951,-3.150032 -9.286284,-5.923427 -0.278333,-2.773395 3.406775,-5.240659 8.230977,-5.510821 4.824203,-0.270165 8.960729,1.759084 9.239227,4.532472 l -8.735092,0.489257 z" /><path
           id="path12"
           style="fill:#2b0000;stroke-width:0.104073"
           d="m 38.176361,59.654117 c 0.190772,0.292455 -3.498928,0.81919 -8.247385,0.992195 -4.748498,0.172976 -8.757682,-0.07323 -8.948551,-0.365676 -0.19102,-0.292447 3.503724,-0.669783 8.25218,-0.842799 4.748471,-0.172976 8.752707,-0.0762 8.943741,0.216246 l -8.597953,0.313289 z" /></g></g></g></svg>
