<?xml version="1.0" encoding="utf-8"?>
<svg viewBox="12.5 115.913 622.0625 104" xmlns="http://www.w3.org/2000/svg">
  <path d="M 37.325 199.663 Q 26.975 199.663 22.325 193.438 Q 17.675 187.213 17.675 175.363 L 17.675 143.788 L 26.075 143.788 L 26.075 175.513 Q 26.075 184.288 28.7 188.075 Q 31.325 191.863 37.325 191.863 Q 43.325 191.863 45.913 188.15 Q 48.5 184.438 48.5 175.513 L 48.5 143.788 L 56.975 143.788 L 56.975 175.363 Q 56.975 187.138 52.063 193.4 Q 47.15 199.663 37.325 199.663 Z" style="filter: drop-shadow(rgba(0, 0, 0, 0.3) 2px 2px 1px);" transform="matrix(1, 0, 0, 1, 1.7763568394002505e-15, -2.842170943040401e-14)"/>
  <path d="M 76.166 163.213 L 76.391 169.213 L 76.391 198.913 L 67.991 198.913 L 67.991 143.713 L 69.041 143.713 L 101.441 179.863 L 101.141 173.563 L 101.141 143.788 L 109.541 143.788 L 109.541 198.913 L 108.416 198.913 Z" style="filter: drop-shadow(rgba(0, 0, 0, 0.3) 2px 2px 1px);" transform="matrix(1, 0, 0, 1, 1.7763568394002505e-15, -2.842170943040401e-14)"/>
  <path d="M 122.216 143.788 L 130.616 143.788 L 130.616 198.913 L 122.216 198.913 Z" style="filter: drop-shadow(rgba(0, 0, 0, 0.3) 2px 2px 1px);" transform="matrix(1, 0, 0, 1, 1.7763568394002505e-15, -2.842170943040401e-14)"/>
  <path d="M 155.063 170.188 L 139.163 143.788 L 149.288 143.788 L 159.713 163.063 L 170.438 143.788 L 180.338 143.788 L 164.363 170.038 L 181.913 198.913 L 171.938 198.913 L 159.788 177.088 L 147.863 198.913 L 138.188 198.913 Z" style="filter: drop-shadow(rgba(0, 0, 0, 0.3) 2px 2px 1px);" transform="matrix(1, 0, 0, 1, 1.7763568394002505e-15, -2.842170943040401e-14)"/>
  <path d="M 219.572 199.663 Q 215.072 199.663 210.647 198.088 Q 206.222 196.513 204.272 194.563 L 208.247 187.438 Q 209.822 188.863 213.159 190.4 Q 216.497 191.938 219.572 191.938 Q 223.547 191.938 226.059 190.063 Q 228.572 188.188 228.572 184.888 Q 228.572 182.338 227.222 180.463 Q 225.872 178.588 223.922 177.35 Q 221.972 176.113 218.372 174.313 Q 214.097 172.213 212.522 171.163 Q 205.247 166.288 205.247 157.663 Q 205.247 150.538 209.972 146.75 Q 214.697 142.963 221.897 142.963 Q 229.622 142.963 235.022 147.388 L 231.047 154.213 Q 229.622 152.713 227.034 151.625 Q 224.447 150.538 221.522 150.538 Q 217.772 150.538 215.634 152.225 Q 213.497 153.913 213.497 157.213 Q 213.497 159.538 214.847 161.375 Q 216.197 163.213 218.259 164.563 Q 220.322 165.913 223.847 167.863 Q 227.222 169.738 229.022 170.825 Q 230.822 171.913 232.397 173.413 Q 234.572 175.363 235.922 178.063 Q 237.272 180.763 237.272 183.988 Q 237.272 189.013 234.984 192.538 Q 232.697 196.063 228.684 197.863 Q 224.672 199.663 219.572 199.663 Z" style="filter: drop-shadow(rgba(0, 0, 0, 0.3) 2px 2px 1px);" transform="matrix(1, 0, 0, 1, 1.7763568394002505e-15, -2.842170943040401e-14)"/>
  <path d="M 246.197 143.788 L 270.347 143.788 L 270.347 151.138 L 254.522 151.138 L 254.522 166.363 L 267.272 166.363 L 267.272 173.863 L 254.522 173.863 L 254.522 191.488 L 272.822 191.488 L 272.822 198.913 L 246.197 198.913 Z" style="filter: drop-shadow(rgba(0, 0, 0, 0.3) 2px 2px 1px);" transform="matrix(1, 0, 0, 1, 1.7763568394002505e-15, -2.842170943040401e-14)"/>
  <path d="M 281.288 143.788 L 289.763 143.788 L 289.763 191.413 L 305.588 191.413 L 305.588 198.913 L 281.288 198.913 Z" style="filter: drop-shadow(rgba(0, 0, 0, 0.3) 2px 2px 1px);" transform="matrix(1, 0, 0, 1, 1.7763568394002505e-15, -2.842170943040401e-14)"/>
  <path d="M 313.619 143.788 L 339.494 143.788 L 339.494 151.063 L 321.944 151.063 L 321.944 166.663 L 335.594 166.663 L 335.594 174.013 L 321.944 174.013 L 321.944 198.913 L 313.619 198.913 Z" style="filter: drop-shadow(rgba(0, 0, 0, 0.3) 2px 2px 1px);" transform="matrix(1, 0, 0, 1, 1.7763568394002505e-15, -2.842170943040401e-14)"/>
  <path d="M 379.775 199.663 Q 375.275 199.663 370.85 198.088 Q 366.425 196.513 364.475 194.563 L 368.45 187.438 Q 370.025 188.863 373.363 190.4 Q 376.7 191.938 379.775 191.938 Q 383.75 191.938 386.263 190.063 Q 388.775 188.188 388.775 184.888 Q 388.775 182.338 387.425 180.463 Q 386.075 178.588 384.125 177.35 Q 382.175 176.113 378.575 174.313 Q 374.3 172.213 372.725 171.163 Q 365.45 166.288 365.45 157.663 Q 365.45 150.538 370.175 146.75 Q 374.9 142.963 382.1 142.963 Q 389.825 142.963 395.225 147.388 L 391.25 154.213 Q 389.825 152.713 387.238 151.625 Q 384.65 150.538 381.725 150.538 Q 377.975 150.538 375.838 152.225 Q 373.7 153.913 373.7 157.213 Q 373.7 159.538 375.05 161.375 Q 376.4 163.213 378.463 164.563 Q 380.525 165.913 384.05 167.863 Q 387.425 169.738 389.225 170.825 Q 391.025 171.913 392.6 173.413 Q 394.775 175.363 396.125 178.063 Q 397.475 180.763 397.475 183.988 Q 397.475 189.013 395.188 192.538 Q 392.9 196.063 388.888 197.863 Q 384.875 199.663 379.775 199.663 Z" style="filter: drop-shadow(rgba(0, 0, 0, 0.3) 2px 2px 1px);" transform="matrix(1, 0, 0, 1, 1.7763568394002505e-15, -2.842170943040401e-14)"/>
  <path d="M 406.4 143.788 L 430.55 143.788 L 430.55 151.138 L 414.725 151.138 L 414.725 166.363 L 427.475 166.363 L 427.475 173.863 L 414.725 173.863 L 414.725 191.488 L 433.025 191.488 L 433.025 198.913 L 406.4 198.913 Z" style="filter: drop-shadow(rgba(0, 0, 0, 0.3) 2px 2px 1px);" transform="matrix(1, 0, 0, 1, 1.7763568394002505e-15, -2.842170943040401e-14)"/>
  <path d="M 469.016 198.913 L 457.916 178.063 Q 454.466 178.213 451.766 178.213 L 449.666 178.213 L 449.666 198.913 L 441.491 198.913 L 441.491 143.788 L 454.016 143.788 Q 463.541 143.788 469.691 147.725 Q 475.841 151.663 475.841 160.513 Q 475.841 166.063 473.253 170.075 Q 470.666 174.088 465.566 176.263 L 478.691 198.913 Z M 454.991 171.388 Q 462.341 171.388 465.078 168.2 Q 467.816 165.013 467.816 160.588 Q 467.816 150.763 454.691 150.763 L 449.666 150.763 L 449.666 171.388 Z" style="filter: drop-shadow(rgba(0, 0, 0, 0.3) 2px 2px 1px);" transform="matrix(1, 0, 0, 1, 1.7763568394002505e-15, -2.842170943040401e-14)"/>
  <path d="M 477.941 143.788 L 487.466 143.788 L 503.966 181.663 L 520.541 143.788 L 529.991 143.788 L 504.566 198.913 L 503.441 198.913 Z" style="filter: drop-shadow(rgba(0, 0, 0, 0.3) 2px 2px 1px);" transform="matrix(1, 0, 0, 1, 1.7763568394002505e-15, -2.842170943040401e-14)"/>
  <path d="M 535.622 143.788 L 544.022 143.788 L 544.022 198.913 L 535.622 198.913 Z" style="filter: drop-shadow(rgba(0, 0, 0, 0.3) 2px 2px 1px);" transform="matrix(1, 0, 0, 1, 1.7763568394002505e-15, -2.842170943040401e-14)"/>
  <path d="M 581.744 199.438 Q 573.194 199.438 566.931 195.613 Q 560.669 191.788 557.369 185.375 Q 554.069 178.963 554.069 171.238 Q 554.069 163.063 557.631 156.613 Q 561.194 150.163 567.644 146.525 Q 574.094 142.888 582.269 142.888 Q 585.944 142.888 589.131 143.675 Q 592.319 144.463 594.419 145.475 Q 596.519 146.488 597.194 147.163 L 593.519 154.663 Q 588.944 150.613 581.594 150.613 Q 576.419 150.613 572.219 153.163 Q 568.019 155.713 565.619 160.438 Q 563.219 165.163 563.219 171.388 Q 563.219 177.088 565.356 181.738 Q 567.494 186.388 571.619 189.088 Q 575.744 191.788 581.444 191.788 Q 588.044 191.788 594.194 188.038 L 596.669 195.163 Q 595.019 196.663 590.631 198.05 Q 586.244 199.438 581.744 199.438 Z" style="filter: drop-shadow(rgba(0, 0, 0, 0.3) 2px 2px 1px);" transform="matrix(1, 0, 0, 1, 1.7763568394002505e-15, -2.842170943040401e-14)"/>
  <path d="M 605.291 143.788 L 629.441 143.788 L 629.441 151.138 L 613.616 151.138 L 613.616 166.363 L 626.366 166.363 L 626.366 173.863 L 613.616 173.863 L 613.616 191.488 L 631.916 191.488 L 631.916 198.913 L 605.291 198.913 Z" style="filter: drop-shadow(rgba(0, 0, 0, 0.3) 2px 2px 1px);" transform="matrix(1, 0, 0, 1, 1.7763568394002505e-15, -2.842170943040401e-14)"/>
</svg>