<?xml version="1.0" encoding="utf-8"?>
<svg viewBox="64.13 138.2372 398.3594 61.0024" xmlns="http://www.w3.org/2000/svg">
  <path d="M 85.978 184.239 L 76.052 184.239 L 65.716 144.864 L 76.79 144.864 L 83.325 172.809 L 89.122 144.864 L 99.075 144.864 L 105.419 173.52 L 112.556 144.864 L 119.255 144.864 L 107.798 184.239 L 97.845 184.239 L 92.294 159.083 Z" style="fill: rgb(0, 174, 255); text-transform: uppercase;"/>
  <path d="M 165.015 164.497 Q 165.015 169.255 163.374 173.069 Q 161.734 176.884 158.835 179.536 Q 155.937 182.188 151.972 183.61 Q 148.007 185.032 143.386 185.032 Q 138.765 185.032 134.8 183.61 Q 130.835 182.188 127.937 179.536 Q 125.038 176.884 123.398 173.069 Q 121.757 169.255 121.757 164.497 Q 121.757 159.657 123.384 155.843 Q 125.011 152.028 127.896 149.389 Q 130.781 146.751 134.745 145.343 Q 138.71 143.934 143.386 143.934 Q 148.062 143.934 152.027 145.343 Q 155.992 146.751 158.876 149.389 Q 161.761 152.028 163.388 155.843 Q 165.015 159.657 165.015 164.497 Z M 153.968 164.497 Q 153.968 162.692 153.804 160.805 Q 153.64 158.919 153.202 157.141 Q 152.765 155.364 152.013 153.805 Q 151.261 152.247 150.085 151.085 Q 148.91 149.923 147.255 149.253 Q 145.601 148.583 143.386 148.583 Q 141.144 148.583 139.476 149.253 Q 137.808 149.923 136.632 151.071 Q 135.456 152.219 134.718 153.778 Q 133.98 155.337 133.556 157.1 Q 133.132 158.864 132.968 160.764 Q 132.804 162.665 132.804 164.497 Q 132.804 166.301 132.968 168.188 Q 133.132 170.075 133.57 171.839 Q 134.007 173.602 134.759 175.161 Q 135.511 176.719 136.687 177.882 Q 137.863 179.044 139.517 179.727 Q 141.171 180.411 143.386 180.411 Q 145.546 180.411 147.16 179.714 Q 148.773 179.016 149.949 177.827 Q 151.124 176.637 151.904 175.065 Q 152.683 173.493 153.134 171.729 Q 153.585 169.966 153.777 168.106 Q 153.968 166.247 153.968 164.497 Z" style="fill: rgb(0, 174, 255); text-transform: uppercase;"/>
  <path d="M 182.603 184.239 L 171.747 184.239 L 171.747 144.864 L 191.107 144.864 Q 193.841 144.864 196.384 145.507 Q 198.927 146.149 200.882 147.53 Q 202.837 148.911 203.999 151.098 Q 205.161 153.286 205.161 156.403 Q 205.161 158.837 204.136 160.983 Q 203.111 163.13 201.402 164.811 Q 199.693 166.493 197.478 167.6 Q 195.263 168.708 192.884 169.063 Q 193.95 170.868 195.113 172.481 Q 196.275 174.094 197.464 175.503 Q 198.654 176.911 199.829 178.1 Q 201.005 179.29 202.072 180.274 Q 204.587 182.571 207.048 184.239 L 193.513 184.239 Q 191.872 182.68 190.396 180.493 Q 189.138 178.634 187.866 175.885 Q 186.595 173.137 185.911 169.528 L 182.603 169.528 Z M 194.142 156.403 Q 194.142 152.438 192.214 150.579 Q 190.286 148.719 186.431 148.719 L 182.603 148.719 L 182.603 165.809 L 186.431 165.809 Q 188.482 165.809 189.945 165.03 Q 191.407 164.251 192.337 162.952 Q 193.267 161.653 193.704 159.958 Q 194.142 158.262 194.142 156.403 Z" style="fill: rgb(0, 174, 255); text-transform: uppercase;"/>
  <path d="M 250.327 164.497 Q 250.327 167.368 249.561 169.952 Q 248.796 172.536 247.415 174.723 Q 246.034 176.911 244.12 178.675 Q 242.206 180.438 239.895 181.669 Q 237.585 182.899 234.946 183.569 Q 232.308 184.239 229.518 184.239 L 212.155 184.239 L 212.155 144.864 L 229.518 144.864 Q 232.308 144.864 234.933 145.52 Q 237.558 146.176 239.868 147.393 Q 242.179 148.61 244.106 150.36 Q 246.034 152.11 247.415 154.284 Q 248.796 156.458 249.561 159.042 Q 250.327 161.626 250.327 164.497 Z M 239.308 164.497 Q 239.308 161.298 238.528 158.413 Q 237.749 155.528 236.108 153.341 Q 234.468 151.153 231.938 149.868 Q 229.409 148.583 225.882 148.583 L 223.011 148.583 L 223.011 180.411 L 225.882 180.411 Q 229.354 180.411 231.884 179.112 Q 234.413 177.813 236.067 175.612 Q 237.722 173.411 238.515 170.54 Q 239.308 167.669 239.308 164.497 Z" style="fill: rgb(0, 174, 255); text-transform: uppercase;"/>
  <path d="M 283.673 193.481 L 260.841 193.481 L 260.841 188.696 L 283.673 188.696 Z" style="fill: rgb(0, 174, 255); text-transform: uppercase;"/>
  <path d="M 324.713 184.239 L 296.44 184.239 L 296.44 144.864 L 307.295 144.864 L 307.295 179.235 L 324.713 179.235 Z" style="fill: rgb(0, 174, 255); text-transform: uppercase;"/>
  <path d="M 368.976 164.497 Q 368.976 169.255 367.336 173.069 Q 365.695 176.884 362.796 179.536 Q 359.898 182.188 355.933 183.61 Q 351.968 185.032 347.347 185.032 Q 342.726 185.032 338.761 183.61 Q 334.796 182.188 331.898 179.536 Q 329 176.884 327.359 173.069 Q 325.718 169.255 325.718 164.497 Q 325.718 159.657 327.345 155.843 Q 328.972 152.028 331.857 149.389 Q 334.742 146.751 338.707 145.343 Q 342.671 143.934 347.347 143.934 Q 352.023 143.934 355.988 145.343 Q 359.953 146.751 362.837 149.389 Q 365.722 152.028 367.349 155.843 Q 368.976 159.657 368.976 164.497 Z M 357.929 164.497 Q 357.929 162.692 357.765 160.805 Q 357.601 158.919 357.164 157.141 Q 356.726 155.364 355.974 153.805 Q 355.222 152.247 354.046 151.085 Q 352.871 149.923 351.216 149.253 Q 349.562 148.583 347.347 148.583 Q 345.105 148.583 343.437 149.253 Q 341.769 149.923 340.593 151.071 Q 339.418 152.219 338.679 153.778 Q 337.941 155.337 337.517 157.1 Q 337.093 158.864 336.929 160.764 Q 336.765 162.665 336.765 164.497 Q 336.765 166.301 336.929 168.188 Q 337.093 170.075 337.531 171.839 Q 337.968 173.602 338.72 175.161 Q 339.472 176.719 340.648 177.882 Q 341.824 179.044 343.478 179.727 Q 345.132 180.411 347.347 180.411 Q 349.507 180.411 351.121 179.714 Q 352.734 179.016 353.91 177.827 Q 355.086 176.637 355.865 175.065 Q 356.644 173.493 357.095 171.729 Q 357.546 169.966 357.738 168.106 Q 357.929 166.247 357.929 164.497 Z" style="fill: rgb(0, 174, 255); text-transform: uppercase;"/>
  <path d="M 411.474 154.626 L 406.798 156.594 Q 406.251 154.817 405.335 153.341 Q 404.419 151.864 403.148 150.811 Q 401.876 149.759 400.263 149.171 Q 398.65 148.583 396.736 148.583 Q 394.685 148.583 392.976 149.266 Q 391.267 149.95 389.914 151.112 Q 388.56 152.274 387.548 153.833 Q 386.537 155.391 385.867 157.155 Q 385.197 158.919 384.855 160.805 Q 384.513 162.692 384.513 164.497 Q 384.513 167.368 385.183 170.212 Q 385.853 173.055 387.316 175.325 Q 388.779 177.594 391.103 179.003 Q 393.427 180.411 396.736 180.411 Q 398.541 180.411 399.552 179.604 Q 400.564 178.798 400.564 176.774 L 400.564 164.688 L 411.419 164.688 L 411.419 184.239 L 408.275 184.239 L 406.361 181.149 Q 403.736 183.145 400.578 184.089 Q 397.419 185.032 394.138 185.032 Q 391.24 185.032 388.574 184.321 Q 385.908 183.61 383.611 182.298 Q 381.314 180.985 379.441 179.126 Q 377.568 177.266 376.242 174.997 Q 374.916 172.727 374.191 170.061 Q 373.466 167.395 373.466 164.497 Q 373.466 161.598 374.191 158.932 Q 374.916 156.266 376.242 153.983 Q 377.568 151.7 379.441 149.841 Q 381.314 147.981 383.611 146.669 Q 385.908 145.356 388.574 144.645 Q 391.24 143.934 394.138 143.934 Q 396.927 143.934 399.593 144.591 Q 402.259 145.247 404.556 146.573 Q 406.853 147.899 408.644 149.909 Q 410.435 151.919 411.474 154.626 Z" style="fill: rgb(0, 174, 255); text-transform: uppercase;"/>
  <path d="M 460.198 164.497 Q 460.198 169.255 458.558 173.069 Q 456.917 176.884 454.019 179.536 Q 451.12 182.188 447.155 183.61 Q 443.191 185.032 438.57 185.032 Q 433.948 185.032 429.984 183.61 Q 426.019 182.188 423.12 179.536 Q 420.222 176.884 418.581 173.069 Q 416.941 169.255 416.941 164.497 Q 416.941 159.657 418.568 155.843 Q 420.195 152.028 423.079 149.389 Q 425.964 146.751 429.929 145.343 Q 433.894 143.934 438.57 143.934 Q 443.245 143.934 447.21 145.343 Q 451.175 146.751 454.06 149.389 Q 456.945 152.028 458.572 155.843 Q 460.198 159.657 460.198 164.497 Z M 449.152 164.497 Q 449.152 162.692 448.988 160.805 Q 448.823 158.919 448.386 157.141 Q 447.948 155.364 447.197 153.805 Q 446.445 152.247 445.269 151.085 Q 444.093 149.923 442.439 149.253 Q 440.784 148.583 438.57 148.583 Q 436.327 148.583 434.659 149.253 Q 432.991 149.923 431.816 151.071 Q 430.64 152.219 429.902 153.778 Q 429.163 155.337 428.739 157.1 Q 428.316 158.864 428.152 160.764 Q 427.988 162.665 427.988 164.497 Q 427.988 166.301 428.152 168.188 Q 428.316 170.075 428.753 171.839 Q 429.191 173.602 429.943 175.161 Q 430.695 176.719 431.87 177.882 Q 433.046 179.044 434.7 179.727 Q 436.355 180.411 438.57 180.411 Q 440.73 180.411 442.343 179.714 Q 443.956 179.016 445.132 177.827 Q 446.308 176.637 447.087 175.065 Q 447.866 173.493 448.318 171.729 Q 448.769 169.966 448.96 168.106 Q 449.152 166.247 449.152 164.497 Z" style="fill: rgb(0, 174, 255); text-transform: uppercase;"/>
</svg>